<?xml version="1.0" encoding="utf-8"?>
<!-- Generator: Adobe Illustrator 22.1.0, SVG Export Plug-In . SVG Version: 6.00 Build 0)  -->
<svg version="1.1" id="Layer_1" xmlns="http://www.w3.org/2000/svg" xmlns:xlink="http://www.w3.org/1999/xlink" x="0px" y="0px"
	 viewBox="0 0 100 600" style="enable-background:new 0 0 100 600;" xml:space="preserve">
<g>
	<path style="fill:#FFFFFF;" d="M33.3,19.9c0.1-0.3,0.3-0.5,0.6-0.5c0.5,0,1,0.6,1.3,1.7c0.3,1.1,0.8,2.1,1.4,2.9
		c0.6,0.8,1.5,1.5,2.7,2c4.5,2,8.7,3.7,12.6,5.2c3.9,1.5,8.4,3.2,13.5,5.1c1.4,0.5,2.6,0.9,3.7,1c0.3,1.1,0.6,2,1,2.7
		c0.2,0.5,0.6,0.8,1,1.1c0.5,0.3,0.8,0.5,0.9,0.5c0.2,0.2,0.1,0.4-0.1,0.5c-0.2,0.1-0.4,0.2-0.7,0.3c-0.3,0.1-0.5,0.1-0.7,0.2
		c-7.2,2.3-16.3,5.2-27.1,8.9l-3.3,1.1c-1.7,0.6-2.9,1.3-3.6,2.2c-0.7,0.8-1.2,1.9-1.4,3.2c-0.1,0.6-0.3,1-0.5,1.3
		c-0.2,0.3-0.5,0.4-0.8,0.4c-0.4,0-0.6-0.5-0.6-1.5l0.1-3.5c0.1-1.6,0.2-3.2,0.2-4.8l-0.1-3.9c0-0.8-0.1-1.8-0.1-3
		c0-0.5,0.1-0.8,0.2-1.1c0.1-0.3,0.3-0.4,0.5-0.4c0.3,0,0.5,0.2,0.7,0.5c0.2,0.3,0.3,0.7,0.4,1.2c0.2,1.3,0.6,2.3,1,2.8
		s1.1,0.8,1.8,0.7c0.7,0,1.7-0.2,3.1-0.6c1.4-0.4,2.7-0.7,4.1-1c0.2-0.1,0.6-0.2,1.3-0.4c0.3-0.1,0.4-0.2,0.5-0.4
		c0.1-0.2,0.1-0.5,0.1-1V32.9c0-0.4-0.3-0.7-1-1c-1.1-0.4-2.5-0.8-4.2-1.3c-1.7-0.5-2.8-0.8-3.3-0.9c-1.7-0.2-2.9,0.9-3.5,3.3
		c-0.3,1.1-0.6,1.7-1.1,1.7c-0.5,0-0.7-0.5-0.7-1.5c0-0.9,0-1.7,0.1-2.3l0.1-3.2c0-0.6,0-1.2-0.1-2c0-0.8-0.1-1.3-0.1-1.7
		c-0.1-1.1-0.2-2.1-0.2-3.1C33.1,20.6,33.1,20.2,33.3,19.9z M49.5,42.8c0,0.2,0,0.4,0.1,0.6c0,0.2,0.1,0.2,0.2,0.2
		c0,0,0.2,0,0.6-0.1l13.4-4.2c0.6-0.2,0.9-0.3,0.9-0.5c0-0.1-0.3-0.2-0.9-0.4l-13.5-4.9l-0.5-0.1c-0.2,0-0.3,0.1-0.4,0.3
		c-0.1,0.2-0.1,0.5-0.1,0.9V42.8z"/>
	<path style="fill:#FFFFFF;" d="M33.4,61.1c0.1-0.2,0.3-0.3,0.5-0.3c0.3,0,0.5,0.1,0.6,0.3c0.2,0.2,0.3,0.5,0.4,1
		c0.2,0.8,0.4,1.3,0.7,1.7c0.3,0.4,0.8,0.6,1.4,0.6h12.5c1.1,0,1.9-0.1,2.5-0.4c0.6-0.3,1-0.8,1.2-1.6c0.1-0.4,0.3-0.6,0.8-0.6
		c0.5,0,0.8,0.2,0.8,0.5c0.6,2.4,1.6,4.6,2.9,6.6c0.2,0.3,0.3,0.5,0.3,0.7c0,0.3-0.2,0.4-0.5,0.4l-1.1-0.1c-0.3,0-0.6-0.1-1-0.1
		c-0.4,0-0.9-0.1-1.3-0.1c-0.4,0-0.7,0-0.7,0.1c1.3,1.3,2.2,2.7,2.9,4.1c0.6,1.4,0.9,3,0.9,4.8c0,1.9-0.7,3.5-2.2,4.7
		c-1.5,1.2-3.4,1.9-5.7,1.9H37c-0.7,0-1.1,0.2-1.4,0.6c-0.2,0.4-0.5,1-0.7,1.8c-0.3,0.8-0.7,1.2-1.1,1.2c-0.4,0-0.6-0.4-0.6-1.1
		c0-1.1,0.1-2,0.2-2.7c0.1-1,0.1-1.8,0.1-2.4c0-0.6,0-1.4-0.1-2.4c-0.1-0.7-0.2-1.6-0.2-2.7c0-0.3,0-0.5,0.1-0.7
		c0.1-0.2,0.3-0.3,0.5-0.3c0.4,0,0.8,0.4,1.1,1.2c0.3,0.8,0.5,1.4,0.7,1.8c0.2,0.4,0.7,0.5,1.4,0.5h11.7c1.5,0,2.8-0.4,3.7-1.2
		c0.9-0.8,1.4-1.9,1.4-3.3c0-2.1-0.7-3.9-2-5.6c-0.3-0.3-0.7-0.5-1.2-0.5H37c-0.7,0-1.2,0.2-1.4,0.6c-0.3,0.4-0.5,0.9-0.7,1.7
		c-0.2,0.8-0.6,1.2-1,1.2s-0.7-0.4-0.7-1.1c0-1,0.1-1.9,0.2-2.7c0.1-0.9,0.1-1.7,0.1-2.3c0-0.6,0-1.4-0.1-2.4
		c-0.1-0.8-0.2-1.7-0.2-2.8C33.2,61.5,33.2,61.3,33.4,61.1z"/>
	<path style="fill:#FFFFFF;" d="M33.8,103.2c0.3,0,0.5,0.1,0.7,0.4c0.2,0.3,0.3,0.7,0.4,1.2c0.3,1.5,0.7,2.5,1.3,3.2
		c0.6,0.7,1.5,1,2.8,1h25.6c1.3,0,2.2-0.3,2.8-0.8c0.5-0.5,1-1.5,1.3-2.9c0.2-1.1,0.6-1.6,1.1-1.6c0.5,0,0.7,0.5,0.7,1.4
		c0,1,0,2.3-0.1,3.9c-0.1,1.4-0.1,2.5-0.1,3.3l0.1,3.2c0.1,1.4,0.1,2.7,0.1,3.7c0,1-0.2,1.5-0.7,1.5c-0.5,0-0.9-0.5-1.1-1.6
		c-0.3-1.5-0.7-2.6-1.3-3.1c-0.6-0.6-1.5-0.9-2.7-0.9H38.9c-1.2,0-2.1,0.3-2.7,1c-0.6,0.7-1,1.7-1.4,3.3c-0.1,0.6-0.3,1-0.4,1.2
		c-0.2,0.3-0.4,0.4-0.7,0.4c-0.5,0-0.7-0.5-0.7-1.4c0-1.4,0.1-2.6,0.2-3.9c0.1-1.5,0.1-2.6,0.1-3.4c0-0.8,0-2-0.1-3.6
		c-0.1-1.2-0.2-2.6-0.2-4C33.1,103.7,33.4,103.2,33.8,103.2z"/>
	<path style="fill:#FFFFFF;" d="M33.4,123.5c0.1-0.2,0.3-0.3,0.5-0.3c0.3,0,0.5,0.1,0.6,0.3c0.2,0.2,0.3,0.5,0.4,1
		c0.2,0.8,0.4,1.3,0.7,1.7c0.3,0.4,0.8,0.6,1.4,0.6h12.5c1.1,0,1.9-0.1,2.5-0.4c0.6-0.3,1-0.8,1.2-1.6c0.1-0.4,0.3-0.6,0.8-0.6
		c0.5,0,0.8,0.2,0.8,0.5c0.6,2.4,1.6,4.6,2.9,6.6c0.2,0.3,0.3,0.5,0.3,0.7c0,0.3-0.2,0.4-0.5,0.4l-1.1-0.1c-0.3,0-0.6-0.1-1-0.1
		c-0.4,0-0.9-0.1-1.3-0.1c-0.4,0-0.7,0-0.7,0.1c1.3,1.3,2.2,2.7,2.9,4.1c0.6,1.4,0.9,3,0.9,4.8c0,1.9-0.7,3.5-2.2,4.7
		c-1.5,1.2-3.4,1.9-5.7,1.9H37c-0.7,0-1.1,0.2-1.4,0.6c-0.2,0.4-0.5,1-0.7,1.8c-0.3,0.8-0.7,1.2-1.1,1.2c-0.4,0-0.6-0.4-0.6-1.1
		c0-1.1,0.1-2,0.2-2.7c0.1-1,0.1-1.8,0.1-2.4c0-0.6,0-1.4-0.1-2.4c-0.1-0.7-0.2-1.6-0.2-2.7c0-0.3,0-0.5,0.1-0.7
		c0.1-0.2,0.3-0.3,0.5-0.3c0.4,0,0.8,0.4,1.1,1.2c0.3,0.8,0.5,1.4,0.7,1.8c0.2,0.4,0.7,0.5,1.4,0.5h11.7c1.5,0,2.8-0.4,3.7-1.2
		c0.9-0.8,1.4-1.9,1.4-3.3c0-2.1-0.7-3.9-2-5.6c-0.3-0.3-0.7-0.5-1.2-0.5H37c-0.7,0-1.2,0.2-1.4,0.6c-0.3,0.4-0.5,0.9-0.7,1.7
		c-0.2,0.8-0.6,1.2-1,1.2s-0.7-0.4-0.7-1.1c0-1,0.1-1.9,0.2-2.7c0.1-0.9,0.1-1.7,0.1-2.3c0-0.6,0-1.4-0.1-2.4
		c-0.1-0.8-0.2-1.7-0.2-2.8C33.2,124,33.2,123.8,33.4,123.5z"/>
	<path style="fill:#FFFFFF;" d="M34.3,158.8c1.2-1.1,2.9-1.7,5.2-1.7h13.2c0.3,0,0.5-0.1,0.7-0.4c0.1-0.3,0.2-0.7,0.2-1.4v-0.5
		c0-0.2,0.2-0.4,0.5-0.6c0.3-0.2,0.6-0.2,1-0.2c0.1,0,0.2,0,0.3,0.1c0.1,0.1,0.2,0.2,0.2,0.3c0.6,1.1,1.4,2.2,2.3,3.3
		c0.9,1.1,1.8,2.1,2.7,2.9c0,0,0.2,0.2,0.4,0.4c0.2,0.2,0.3,0.5,0.3,0.7c0,0.6-0.3,0.8-0.8,0.8l-2.8-0.3h-0.2
		c-0.3,0-0.6,0.1-0.7,0.3c-0.1,0.2-0.2,0.6-0.2,1v6.6c0,0.1-0.1,0.2-0.4,0.3c-0.3,0.1-0.5,0.2-0.8,0.2c-0.4,0-0.8-0.1-1.2-0.2
		c-0.4-0.1-0.6-0.2-0.6-0.4v-5.5c0-0.9-0.1-1.6-0.3-1.8c-0.2-0.3-0.6-0.4-1.3-0.4h-11c-1.6,0-2.8,0.3-3.7,1
		c-0.9,0.6-1.3,1.5-1.3,2.7c0,1,0.1,1.8,0.2,2.4c0.2,0.6,0.4,1.1,0.7,1.7l0.1,0.3c0,0.3-0.3,0.5-0.9,0.5c-0.3,0-0.7-0.4-1.3-1.1
		c-0.6-0.7-1.1-1.7-1.6-2.8c-0.5-1.1-0.7-2.2-0.7-3.3C32.6,161.5,33.1,159.9,34.3,158.8z"/>
	<path style="fill:#FFFFFF;" d="M33.9,172.7c0.3,0,0.5,0.1,0.6,0.3c0.2,0.2,0.3,0.5,0.4,1c0.2,0.8,0.4,1.3,0.8,1.6
		c0.4,0.3,0.8,0.5,1.4,0.5h12.5c1,0,1.8-0.2,2.5-0.5c0.6-0.3,1-0.9,1.2-1.6c0-0.2,0.1-0.3,0.3-0.4c0.2-0.1,0.3-0.2,0.6-0.2
		c0.4,0,0.6,0.2,0.8,0.6c0.3,1,0.7,2.1,1.2,3.3c0.5,1.2,1,2.2,1.5,3.1c0.3,0.5,0.5,0.8,0.5,1c0,0.3-0.2,0.4-0.5,0.4l-4.4-0.2
		c-0.2,0-0.2,0-0.2,0.1c1.2,1,2.3,2.1,3.1,3.3c0.8,1.2,1.2,2.4,1.2,3.5c0,1-0.2,1.7-0.6,2.3c-0.4,0.5-0.9,0.8-1.6,0.8
		c-0.7,0-1.5-0.3-2.3-0.8c-0.8-0.5-1.2-1.1-1.2-1.8c0-0.3,0.2-0.9,0.6-1.8c0.1-0.2,0.2-0.4,0.4-0.8s0.3-0.7,0.3-1
		c0-1.1-0.4-2-1.1-2.7c-0.8-0.7-2-1.1-3.9-1.1H37.2c-0.6,0-1,0.2-1.4,0.7c-0.3,0.5-0.7,1.2-1,2.3c-0.1,0.5-0.2,0.8-0.4,1
		c-0.2,0.2-0.3,0.3-0.6,0.3c-0.5,0-0.7-0.4-0.7-1.1c0-1.1,0.1-2.1,0.2-3c0.1-1.1,0.1-2,0.1-2.6c0-0.6,0-1.4-0.1-2.4
		c-0.1-0.8-0.2-1.7-0.2-2.8C33.2,173.1,33.4,172.7,33.9,172.7z"/>
	<path style="fill:#FFFFFF;" d="M34,199c1-1.8,2.4-3.1,4.1-4.2c1.8-1,3.8-1.5,6-1.5c2.2,0,4.3,0.6,6.3,1.7c2,1.1,3.7,2.7,4.9,4.6
		c1.2,2,1.9,4.1,1.9,6.4c0,2.2-0.5,4.2-1.6,6c-1.1,1.8-2.5,3.3-4.3,4.3c-1.8,1.1-3.7,1.6-5.7,1.6c-2.3,0-4.5-0.5-6.5-1.5
		c-2-1-3.6-2.5-4.8-4.5c-1.2-2-1.8-4.4-1.8-7.2C32.6,202.7,33.1,200.8,34,199z M37.2,211.1c1.5,0.8,3.8,1.2,7.1,1.2
		c1.9,0,3.7-0.3,5.3-0.9c1.7-0.6,3-1.4,4-2.5c1-1.1,1.5-2.3,1.5-3.7c0-0.9-0.1-1.7-0.4-2.4c-0.3-0.7-0.8-1.3-1.4-1.9
		c-0.8-0.6-1.9-1.1-3.2-1.4c-1.3-0.3-2.9-0.4-4.7-0.4c-1.9,0-3.6,0.3-5.3,0.9c-1.7,0.6-3,1.4-4.1,2.5c-1,1.1-1.6,2.3-1.6,3.5
		C34.5,208.4,35.4,210.1,37.2,211.1z"/>
	<path style="fill:#FFFFFF;" d="M32.6,239.6c0.2-0.2,0.3-0.3,0.4-0.3c0.2,0,0.6,0,1.2,0.1c0.8,0.1,1.4,0.2,2,0.2h0.3
		c-1.1-0.7-2-1.7-2.8-3c-0.8-1.3-1.2-2.8-1.2-4.4c0-2.1,0.5-3.9,1.6-5.5c1.1-1.6,2.5-2.9,4.3-3.8c1.8-0.9,3.7-1.4,5.7-1.4
		c2.3,0,4.5,0.5,6.5,1.6c2,1.1,3.5,2.6,4.7,4.6c1.2,2,1.8,4.3,1.8,6.8c0,1.2-0.2,2.5-0.6,3.9l-0.2,0.7c0,0.1,0.1,0.2,0.3,0.3
		c0.2,0.1,0.5,0.1,0.9,0.1h7.5c1.4,0,2.4-0.2,3-0.6c0.6-0.4,1-1.1,1.2-2c0-0.2,0.1-0.3,0.3-0.4c0.2-0.1,0.3-0.2,0.5-0.2
		c0.4,0,0.6,0.2,0.7,0.5c0.5,2.3,1.3,4.5,2.2,6.8c0.2,0.5,0.3,0.8,0.3,1c0,0.3-0.2,0.5-0.5,0.5c-0.1,0-0.7-0.1-1.7-0.2
		c-1-0.1-2.6-0.2-4.6-0.2l-26.7-0.1c-1.3,0-2.3,0.1-2.8,0.3c-0.5,0.2-0.8,0.5-0.8,1l0.2,2.4v0.3c0,0.2,0,0.4-0.1,0.5
		c-0.1,0.1-0.2,0.1-0.5,0.1c-0.3,0-0.5-0.1-0.8-0.3c-0.2-0.2-0.4-0.4-0.4-0.6c-0.3-2.3-0.9-4.7-2-7.3c-0.2-0.5-0.3-0.8-0.3-1
		C32.3,240,32.4,239.8,32.6,239.6z M36.5,237.2c0.4,0.9,1,1.7,1.7,2.3h11.1c0.9,0,1.8-0.3,2.7-0.9c0.9-0.6,1.6-1.3,2.1-2.3
		c0.5-1,0.8-2,0.8-3.1c0-1-0.3-2-0.9-2.9c-0.6-1-1.6-1.8-3-2.4c-1.4-0.6-3.2-1-5.3-1c-2.3,0-4.2,0.4-5.7,1.2c-1.5,0.8-2.5,1.8-3.1,3
		c-0.6,1.2-0.9,2.3-0.9,3.3C35.8,235.4,36.1,236.3,36.5,237.2z"/>
	<path style="fill:#FFFFFF;" d="M32.7,269.2l1.6,0.1c0.7,0.1,1.3,0.2,1.9,0.2h0.5c-2.8-2.6-4.1-5.7-4.1-9.2c0-1.9,0.6-3.4,1.9-4.6
		c1.3-1.2,3-1.8,5.2-1.8h11.2c0.8,0,1.5-0.2,2-0.6c0.5-0.4,0.9-1,1.2-1.8c0.2-0.5,0.5-0.8,1-0.8c0.6,0,0.9,0.3,1,0.9
		c0.1,1.3,0.2,2.4,0.3,3.2c0.2,0.9,0.4,2,0.7,3.3c0.1,0.4,0.1,0.6,0.1,0.7c0,0.5-0.3,0.7-0.8,0.6c-1.6-0.3-3.1-0.4-4.4-0.4h-11
		c-1.4,0-2.5,0.4-3.5,1.3c-1,0.9-1.5,1.9-1.5,3c0,1,0.1,1.8,0.2,2.4c0.2,0.6,0.5,1.3,1,1.9c1.1,1.4,2.4,2,4,2h9.9
		c1,0,1.7-0.4,2.2-1.1c0.5-0.7,0.7-1.5,0.8-2.4c0-0.8,0.3-1.2,1-1.2c0.6,0,1,0.4,1,1.2c0.1,2.1,0.2,3.6,0.3,4.7
		c0.1,1,0.3,2.1,0.7,3.2c0.1,0.2,0.1,0.4,0.1,0.6c0,0.2-0.1,0.4-0.2,0.6c-0.1,0.2-0.3,0.2-0.5,0.2c-0.1,0-0.2,0-0.3-0.1
		c-0.1,0-0.2-0.1-0.3-0.1c-0.5-0.1-1.1-0.2-2-0.3c-0.9-0.1-1.5-0.1-2-0.1H38.9c-1.7,0-2.6,0.3-2.6,1l0.1,2.3c0,0.6-0.3,0.9-0.9,0.9
		c-0.5,0-0.8-0.3-0.9-0.9c-0.2-1.4-0.5-2.7-0.8-3.8c-0.3-1.1-0.8-2.3-1.2-3.5c-0.3-0.5-0.4-0.9-0.4-1.2
		C32.2,269.3,32.4,269.2,32.7,269.2z"/>
	<path style="fill:#FFFFFF;" d="M34,286.4c1-1.6,2.4-2.8,4.1-3.7c1.7-0.9,3.7-1.3,5.8-1.3c2.4,0,4.6,0.5,6.7,1.6
		c2,1.1,3.6,2.6,4.8,4.4c1.2,1.9,1.8,3.9,1.8,6.1c0,2.7-0.8,5-2.3,6.9c-0.3,0.4-0.7,0.6-1.1,0.6c-0.5,0-1-0.3-1.6-0.9
		c-0.6-0.6-0.9-1.2-0.9-1.6c0-0.2,0.1-0.5,0.2-0.7c0.2-0.2,0.3-0.5,0.5-0.7c0.8-0.9,1.4-1.9,1.9-2.9c0.5-1,0.8-1.8,0.8-2.5
		c0-1.7-0.8-3.1-2.3-4.1c-1.6-1-3.7-1.5-6.4-1.5c-2.7,0-4.9,0.8-6.7,2.3c-1.8,1.5-2.6,3.5-2.6,5.9c0,1.1,0.2,2.1,0.5,2.9
		c0.4,0.8,1,1.7,1.8,2.6c0.2,0.4,0.3,0.6,0.3,0.7c0,0.2-0.1,0.3-0.2,0.5c-0.2,0.1-0.3,0.2-0.6,0.2c-0.5,0-1-0.2-1.7-0.7
		c-1.2-0.9-2.3-2.1-3.2-3.6c-0.9-1.6-1.3-3.3-1.3-5.2C32.5,289.7,33,288,34,286.4z"/>
	<path style="fill:#FFFFFF;" d="M34.3,309.3c1.2-1.1,2.9-1.7,5.2-1.7h13.2c0.3,0,0.5-0.1,0.7-0.4c0.1-0.3,0.2-0.7,0.2-1.4v-0.5
		c0-0.2,0.2-0.4,0.5-0.6c0.3-0.2,0.6-0.2,1-0.2c0.1,0,0.2,0,0.3,0.1c0.1,0.1,0.2,0.2,0.2,0.3c0.6,1.1,1.4,2.2,2.3,3.3
		c0.9,1.1,1.8,2.1,2.7,2.9c0,0,0.2,0.2,0.4,0.4c0.2,0.2,0.3,0.5,0.3,0.7c0,0.6-0.3,0.8-0.8,0.8l-2.8-0.3h-0.2
		c-0.3,0-0.6,0.1-0.7,0.3c-0.1,0.2-0.2,0.6-0.2,1v6.6c0,0.1-0.1,0.2-0.4,0.3c-0.3,0.1-0.5,0.2-0.8,0.2c-0.4,0-0.8-0.1-1.2-0.2
		c-0.4-0.1-0.6-0.2-0.6-0.4v-5.5c0-0.9-0.1-1.6-0.3-1.8c-0.2-0.3-0.6-0.4-1.3-0.4h-11c-1.6,0-2.8,0.3-3.7,1
		c-0.9,0.6-1.3,1.5-1.3,2.7c0,1,0.1,1.8,0.2,2.4c0.2,0.6,0.4,1.1,0.7,1.7l0.1,0.3c0,0.3-0.3,0.5-0.9,0.5c-0.3,0-0.7-0.4-1.3-1.1
		c-0.6-0.7-1.1-1.7-1.6-2.8c-0.5-1.1-0.7-2.2-0.7-3.3C32.6,312,33.1,310.4,34.3,309.3z"/>
	<path style="fill:#FFFFFF;" d="M33.9,323c0.4,0,0.7,0.4,1,1.2c0.3,0.9,0.5,1.6,0.8,2c0.3,0.4,0.7,0.6,1.3,0.6h12.2
		c2.4,0,3.8-0.9,4-2.6c0-0.4,0.3-0.6,0.9-0.6c0.5,0,0.7,0.2,0.7,0.5c0.5,2.5,1.5,4.8,3,7c0.3,0.5,0.4,0.8,0.4,0.9
		c0,0.3-0.2,0.5-0.5,0.5c-0.2,0-1.1-0.1-2.6-0.2c-2.3-0.2-4-0.3-5.3-0.3H37c-0.6,0-1,0.2-1.3,0.6c-0.3,0.4-0.6,1-0.8,2
		c-0.2,0.8-0.5,1.2-1,1.2c-0.5,0-0.7-0.3-0.7-1c0-1,0.1-1.9,0.2-2.8c0.1-1.1,0.1-1.9,0.1-2.6s0-1.5-0.1-2.4
		c-0.1-0.8-0.2-1.7-0.2-2.8C33.2,323.4,33.4,323,33.9,323z M63.1,326.8c0.7-0.7,1.5-1,2.4-1c1,0,1.8,0.3,2.5,1c0.7,0.7,1,1.5,1,2.4
		c0,1-0.3,1.8-1,2.5c-0.7,0.7-1.5,1-2.5,1c-0.9,0-1.7-0.3-2.4-1c-0.7-0.7-1-1.5-1-2.5C62.2,328.3,62.5,327.5,63.1,326.8z"/>
	<path style="fill:#FFFFFF;" d="M34,344.1c1-1.8,2.4-3.1,4.1-4.2c1.8-1,3.8-1.5,6-1.5c2.2,0,4.3,0.6,6.3,1.7c2,1.1,3.7,2.7,4.9,4.6
		c1.2,2,1.9,4.1,1.9,6.4c0,2.2-0.5,4.2-1.6,6c-1.1,1.8-2.5,3.3-4.3,4.3c-1.8,1.1-3.7,1.6-5.7,1.6c-2.3,0-4.5-0.5-6.5-1.5
		c-2-1-3.6-2.5-4.8-4.5c-1.2-2-1.8-4.4-1.8-7.2C32.6,347.8,33.1,345.9,34,344.1z M37.2,356.2c1.5,0.8,3.8,1.2,7.1,1.2
		c1.9,0,3.7-0.3,5.3-0.9c1.7-0.6,3-1.4,4-2.5s1.5-2.3,1.5-3.7c0-0.9-0.1-1.7-0.4-2.4c-0.3-0.7-0.8-1.3-1.4-1.9
		c-0.8-0.6-1.9-1.1-3.2-1.4c-1.3-0.3-2.9-0.4-4.7-0.4c-1.9,0-3.6,0.3-5.3,0.9c-1.7,0.6-3,1.4-4.1,2.5c-1,1.1-1.6,2.3-1.6,3.5
		C34.5,353.5,35.4,355.2,37.2,356.2z"/>
	<path style="fill:#FFFFFF;" d="M33.4,366.5c0.1-0.2,0.3-0.3,0.5-0.3c0.3,0,0.5,0.1,0.6,0.3c0.2,0.2,0.3,0.5,0.4,1
		c0.2,0.8,0.4,1.3,0.7,1.7c0.3,0.4,0.8,0.6,1.4,0.6h12.5c1.1,0,1.9-0.1,2.5-0.4c0.6-0.3,1-0.8,1.2-1.6c0.1-0.4,0.3-0.6,0.8-0.6
		c0.5,0,0.8,0.2,0.8,0.5c0.6,2.4,1.6,4.6,2.9,6.6c0.2,0.3,0.3,0.5,0.3,0.7c0,0.3-0.2,0.4-0.5,0.4l-1.1-0.1c-0.3,0-0.6-0.1-1-0.1
		c-0.4,0-0.9-0.1-1.3-0.1c-0.4,0-0.7,0-0.7,0.1c1.3,1.3,2.2,2.7,2.9,4.1c0.6,1.4,0.9,3,0.9,4.8c0,1.9-0.7,3.5-2.2,4.7
		c-1.5,1.2-3.4,1.9-5.7,1.9H37c-0.7,0-1.1,0.2-1.4,0.6c-0.2,0.4-0.5,1-0.7,1.8c-0.3,0.8-0.7,1.2-1.1,1.2c-0.4,0-0.6-0.4-0.6-1.1
		c0-1.1,0.1-2,0.2-2.7c0.1-1,0.1-1.8,0.1-2.4c0-0.6,0-1.4-0.1-2.4c-0.1-0.7-0.2-1.6-0.2-2.7c0-0.3,0-0.5,0.1-0.7s0.3-0.3,0.5-0.3
		c0.4,0,0.8,0.4,1.1,1.2c0.3,0.8,0.5,1.4,0.7,1.8c0.2,0.4,0.7,0.5,1.4,0.5h11.7c1.5,0,2.8-0.4,3.7-1.2c0.9-0.8,1.4-1.9,1.4-3.3
		c0-2.1-0.7-3.9-2-5.6c-0.3-0.3-0.7-0.5-1.2-0.5H37c-0.7,0-1.2,0.2-1.4,0.6c-0.3,0.4-0.5,0.9-0.7,1.7c-0.2,0.8-0.6,1.2-1,1.2
		s-0.7-0.4-0.7-1.1c0-1,0.1-1.9,0.2-2.7c0.1-0.9,0.1-1.7,0.1-2.3c0-0.6,0-1.4-0.1-2.4c-0.1-0.8-0.2-1.7-0.2-2.8
		C33.2,367,33.2,366.7,33.4,366.5z"/>
	<path style="fill:#FFFFFF;" d="M34.3,414.2c1.2-1.1,2.9-1.7,5.2-1.7h13.2c0.3,0,0.5-0.1,0.7-0.4c0.1-0.3,0.2-0.7,0.2-1.4v-0.5
		c0-0.2,0.2-0.4,0.5-0.6c0.3-0.2,0.6-0.2,1-0.2c0.1,0,0.2,0,0.3,0.1c0.1,0.1,0.2,0.2,0.2,0.3c0.6,1.1,1.4,2.2,2.3,3.3
		c0.9,1.1,1.8,2.1,2.7,2.9c0,0,0.2,0.2,0.4,0.4c0.2,0.2,0.3,0.5,0.3,0.7c0,0.6-0.3,0.8-0.8,0.8l-2.8-0.3h-0.2
		c-0.3,0-0.6,0.1-0.7,0.3c-0.1,0.2-0.2,0.6-0.2,1v6.6c0,0.1-0.1,0.2-0.4,0.3c-0.3,0.1-0.5,0.2-0.8,0.2c-0.4,0-0.8-0.1-1.2-0.2
		c-0.4-0.1-0.6-0.2-0.6-0.4V420c0-0.9-0.1-1.6-0.3-1.8c-0.2-0.3-0.6-0.4-1.3-0.4h-11c-1.6,0-2.8,0.3-3.7,1c-0.9,0.6-1.3,1.5-1.3,2.7
		c0,1,0.1,1.8,0.2,2.4c0.2,0.6,0.4,1.1,0.7,1.7l0.1,0.3c0,0.3-0.3,0.5-0.9,0.5c-0.3,0-0.7-0.4-1.3-1.1c-0.6-0.7-1.1-1.7-1.6-2.8
		c-0.5-1.1-0.7-2.2-0.7-3.3C32.6,416.9,33.1,415.3,34.3,414.2z"/>
	<path style="fill:#FFFFFF;" d="M34,434.1c1-1.8,2.4-3.1,4.1-4.2c1.8-1,3.8-1.5,6-1.5c2.2,0,4.3,0.6,6.3,1.7c2,1.1,3.7,2.7,4.9,4.6
		c1.2,2,1.9,4.1,1.9,6.4c0,2.2-0.5,4.2-1.6,6c-1.1,1.8-2.5,3.3-4.3,4.3c-1.8,1.1-3.7,1.6-5.7,1.6c-2.3,0-4.5-0.5-6.5-1.5
		c-2-1-3.6-2.5-4.8-4.5c-1.2-2-1.8-4.4-1.8-7.2C32.6,437.8,33.1,435.8,34,434.1z M37.2,446.1c1.5,0.8,3.8,1.2,7.1,1.2
		c1.9,0,3.7-0.3,5.3-0.9c1.7-0.6,3-1.4,4-2.5s1.5-2.3,1.5-3.7c0-0.9-0.1-1.7-0.4-2.4c-0.3-0.7-0.8-1.3-1.4-1.9
		c-0.8-0.6-1.9-1.1-3.2-1.4c-1.3-0.3-2.9-0.4-4.7-0.4c-1.9,0-3.6,0.3-5.3,0.9c-1.7,0.6-3,1.4-4.1,2.5c-1,1.1-1.6,2.3-1.6,3.5
		C34.5,443.5,35.4,445.2,37.2,446.1z"/>
	<path style="fill:#FFFFFF;" d="M22.8,464.4c0.5-1.1,1.2-1.7,2.2-1.7c0.7,0,1.3,0.3,2,0.9c0.6,0.6,0.9,1.1,0.9,1.6
		c0,0.9-0.5,1.8-1.4,2.6c-0.8,0.6-1.4,1.1-1.7,1.5c-0.3,0.4-0.5,0.8-0.5,1.2c0,2.5,3,3.7,9.1,3.7h31.1c1.2,0,2.1-0.3,2.7-0.8
		c0.5-0.5,1-1.5,1.3-2.9c0.2-1.1,0.6-1.6,1.1-1.6c0.5,0,0.7,0.5,0.7,1.5c0,1.1,0,2.3-0.1,3.9c-0.1,1.4-0.1,2.5-0.1,3.3l0.1,2.7
		c0.1,1.4,0.1,2.6,0.1,3.7c0,0.9-0.2,1.4-0.7,1.4c-0.5,0-0.9-0.5-1.1-1.6c-0.3-1.4-0.7-2.3-1.2-2.7s-1.4-0.6-2.7-0.6H36.8
		c-1.9,0-3.8-0.4-5.8-1.3c-1.9-0.9-3.6-2-5.2-3.2c-2.6-2-3.9-4.2-3.9-6.4C22,467.2,22.3,465.5,22.8,464.4z"/>
	<path style="fill:#FFFFFF;" d="M22.8,484.3c0.5-1.1,1.2-1.7,2.2-1.7c0.7,0,1.3,0.3,2,0.9c0.6,0.6,0.9,1.1,0.9,1.6
		c0,0.9-0.5,1.8-1.4,2.6c-0.8,0.6-1.4,1.1-1.7,1.5c-0.3,0.4-0.5,0.8-0.5,1.2c0,2.5,3,3.7,9.1,3.7h31.1c1.2,0,2.1-0.3,2.7-0.8
		c0.5-0.5,1-1.5,1.3-2.9c0.2-1.1,0.6-1.6,1.1-1.6c0.5,0,0.7,0.5,0.7,1.5c0,1.1,0,2.3-0.1,3.9c-0.1,1.4-0.1,2.5-0.1,3.3l0.1,2.7
		c0.1,1.4,0.1,2.6,0.1,3.7c0,0.9-0.2,1.4-0.7,1.4c-0.5,0-0.9-0.5-1.1-1.6c-0.3-1.4-0.7-2.3-1.2-2.7s-1.4-0.6-2.7-0.6H36.8
		c-1.9,0-3.8-0.4-5.8-1.3c-1.9-0.9-3.6-2-5.2-3.2c-2.6-2-3.9-4.2-3.9-6.4C22,487,22.3,485.4,22.8,484.3z"/>
	<path style="fill:#FFFFFF;" d="M33.1,522.2c0.2-0.2,0.4-0.2,0.6-0.2h11.8c0.3,0,0.4-0.1,0.4-0.3V510c0-0.2,0.1-0.4,0.2-0.6
		c0.1-0.2,0.3-0.3,0.5-0.3c0.5,0,1,0.1,1.5,0.4c0.6,0.3,0.9,0.6,0.9,1.1v10.8c0,0.2,0,0.4,0.1,0.4c0.1,0.1,0.2,0.1,0.5,0.1h9.9
		c0.5,0,1,0.3,1.3,1s0.5,1.2,0.5,1.6c0,0.2-0.1,0.4-0.3,0.5c-0.2,0.2-0.4,0.3-0.6,0.3H49.4c-0.3,0-0.5,0.1-0.5,0.3v11.6
		c0,0.3-0.1,0.5-0.2,0.7c-0.1,0.2-0.3,0.3-0.5,0.3c-0.5,0-1.1-0.2-1.6-0.5c-0.5-0.4-0.8-0.8-0.8-1.3v-10.6c0-0.3-0.1-0.4-0.3-0.4
		H34.3c-0.5,0-0.9-0.3-1.1-1c-0.2-0.6-0.3-1.2-0.3-1.8C32.8,522.5,32.9,522.3,33.1,522.2z"/>
	<path style="fill:#FFFFFF;" d="M33.1,555.9c0.2-0.2,0.4-0.2,0.6-0.2h11.8c0.3,0,0.4-0.1,0.4-0.3v-11.6c0-0.2,0.1-0.4,0.2-0.6
		c0.1-0.2,0.3-0.3,0.5-0.3c0.5,0,1,0.1,1.5,0.4c0.6,0.3,0.9,0.6,0.9,1.1v10.8c0,0.2,0,0.4,0.1,0.4c0.1,0.1,0.2,0.1,0.5,0.1h9.9
		c0.5,0,1,0.3,1.3,1s0.5,1.2,0.5,1.6c0,0.2-0.1,0.4-0.3,0.5c-0.2,0.2-0.4,0.3-0.6,0.3H49.4c-0.3,0-0.5,0.1-0.5,0.3V571
		c0,0.3-0.1,0.5-0.2,0.7c-0.1,0.2-0.3,0.3-0.5,0.3c-0.5,0-1.1-0.2-1.6-0.5c-0.5-0.4-0.8-0.8-0.8-1.3v-10.6c0-0.3-0.1-0.4-0.3-0.4
		H34.3c-0.5,0-0.9-0.3-1.1-1c-0.2-0.6-0.3-1.2-0.3-1.8C32.8,556.2,32.9,556,33.1,555.9z"/>
</g>
</svg>
